<svg xmlns="http://www.w3.org/2000/svg" xmlns:xlink="http://www.w3.org/1999/xlink" width="500" zoomAndPan="magnify" viewBox="0 0 375 374.999991" height="500" preserveAspectRatio="xMidYMid meet" version="1.0"><defs><clipPath id="c51e247729"><path d="M 157.773438 96.058594 L 206.523438 96.058594 L 206.523438 144.808594 L 157.773438 144.808594 Z M 157.773438 96.058594 " clip-rule="nonzero"/></clipPath><clipPath id="dd12c69fbf"><path d="M 157.773438 211.417969 L 206.523438 211.417969 L 206.523438 260.167969 L 157.773438 260.167969 Z M 157.773438 211.417969 " clip-rule="nonzero"/></clipPath></defs><g clip-path="url(#c51e247729)"><path fill="#0b2852" d="M 182.175781 144.867188 C 168.695312 144.867188 157.773438 133.867188 157.773438 120.460938 C 157.773438 107.054688 168.695312 96.058594 182.175781 96.058594 C 195.660156 96.058594 206.582031 106.980469 206.582031 120.460938 C 206.582031 133.945312 195.585938 144.867188 182.175781 144.867188 Z M 182.175781 97.5625 C 169.523438 97.5625 159.28125 107.808594 159.28125 120.460938 C 159.28125 133.117188 169.523438 143.359375 182.175781 143.359375 C 194.832031 143.359375 205.074219 133.117188 205.074219 120.460938 C 205.074219 107.808594 194.757812 97.5625 182.175781 97.5625 Z M 182.175781 97.5625 " fill-opacity="1" fill-rule="nonzero"/></g><g clip-path="url(#dd12c69fbf)"><path fill="#0b2852" d="M 182.175781 260.226562 C 168.695312 260.226562 157.773438 249.230469 157.773438 235.824219 C 157.773438 222.414062 168.695312 211.417969 182.175781 211.417969 C 195.660156 211.417969 206.582031 222.339844 206.582031 235.824219 C 206.582031 249.304688 195.585938 260.226562 182.175781 260.226562 Z M 182.175781 212.925781 C 169.523438 212.925781 159.28125 223.167969 159.28125 235.824219 C 159.28125 248.476562 169.523438 258.71875 182.175781 258.71875 C 194.832031 258.71875 205.074219 248.476562 205.074219 235.824219 C 205.074219 223.167969 194.757812 212.925781 182.175781 212.925781 Z M 182.175781 212.925781 " fill-opacity="1" fill-rule="nonzero"/></g><path stroke-linecap="butt" transform="matrix(0.000000001309, 0.75, -0.75, 0.000000001309, 182.929972, 144.876816)" fill="none" stroke-linejoin="miter" d="M -0.00242145 1.00038 L 88.726751 1.00038 " stroke="#0b2852" stroke-width="2" stroke-opacity="1" stroke-miterlimit="4"/></svg>